<svg width="210" height="210" viewBox="0 0 210 210" fill="none" xmlns="http://www.w3.org/2000/svg">
<path d="M138.775 18.725C138.775 18.725 112.525 54.5125 112.525 71.225C107.183 64.9203 101.33 50.3171 95.0251 44.975C90.3687 59.1558 83.4055 82.5941 82.2495 97.475C76.9074 91.1703 75.0798 76.5671 68.7751 71.225C64.1187 85.4058 57.1555 107.619 55.9995 122.5C50.6574 116.195 48.8298 102.817 42.5251 97.475C37.8687 111.656 34.9311 126.344 33.7751 141.225C33.7751 149.975 40.512 158.725 44.6245 160.825L22.7495 182.7L27.3001 187.25L49.1751 165.375C51.2751 169.487 59.8501 176.225 68.7751 176.225C83.656 175.069 98.3443 172.131 112.525 167.475C107.183 161.17 95.5542 159.342 89.2495 154C104.13 152.844 124.594 145.881 138.775 141.225C133.433 134.92 121.804 133.092 115.499 127.75C130.38 126.594 150.844 119.631 165.025 114.975C159.683 108.67 148.054 106.842 141.75 101.5C158.462 101.5 191.275 71.225 191.275 71.225C184.037 68.5155 170.257 70.0865 162.75 68.25C175.525 56.35 182.525 27.475 182.525 27.475C182.525 27.475 151.113 37.8875 138.775 50.75C136.938 43.4149 141.484 25.785 138.775 18.725ZM121.275 78.75C124.122 79.5403 127.072 79.8943 130.025 79.8C129.931 82.753 130.285 85.7032 131.075 88.55H130.025C126.273 88.5746 122.56 89.3171 119.088 90.7375C120.508 87.2647 121.251 83.552 121.275 79.8V78.75ZM95.0251 105C97.8719 105.79 100.822 106.144 103.775 106.05C103.681 109.003 104.035 111.953 104.825 114.8H103.775C100.023 114.825 96.3104 115.567 92.8376 116.988C94.258 113.515 95.0005 109.802 95.0251 106.05V105ZM68.7751 131.25C71.6219 132.04 74.5721 132.394 77.5251 132.3C77.4308 135.253 77.7848 138.203 78.5751 141.05H77.5251C73.7731 141.075 70.0604 141.817 66.5876 143.238C68.008 139.765 68.7505 136.052 68.7751 132.3V131.25Z" fill="#16A34A"/>
</svg>
