<svg width="210" height="210" viewBox="0 0 210 210" fill="none" xmlns="http://www.w3.org/2000/svg">
<path d="M209.523 14C206.603 14.1509 189.16 16.3625 188.188 23.4303C184.185 22.3475 180.13 22.6953 177.19 24.7034C174.985 26.2194 173.764 28.4309 173.502 30.9181C168.842 29.8222 164.393 30.2947 161.269 32.5981C158.651 34.5341 157.391 37.4478 157.397 40.7619C151.478 39.3575 145.821 39.9481 141.864 42.8684C139.075 44.9225 137.506 47.8559 137.086 51.2291C127.827 48.5056 118.803 49.0962 112.648 53.6441C107.627 57.3453 105.363 63.0416 105.672 69.4728C86.7125 64.5641 69.7353 69.1775 68.6525 92.0937C66.8806 129.507 25.7534 143.76 24.5 196.372C53.6441 152.771 128.949 81.8234 122.609 140.19C119.308 170.594 84.6059 150.303 35.8269 187.473C80.2419 156.826 127.669 181.226 131.036 137.729C139.213 142.218 143.006 140.295 149.968 135.163C159.957 127.794 161.098 118.167 156.925 108.493C159.779 107.85 162.391 106.735 164.623 105.087C171.559 99.9687 173.239 91.0503 170.128 81.6331C173.2 81.41 175.982 80.5044 178.227 78.8506C182.873 75.425 184.146 69.5647 182.341 63.2909C185.275 63.3041 187.952 62.5887 190.033 61.0531C194.042 58.0934 194.876 52.8434 192.828 47.3834C194.659 47.1669 196.359 46.5828 197.789 45.605C201.32 43.1834 202.331 38.9703 200.907 34.7178C208.178 33.3462 209.123 16.8678 209.536 14.0066L209.523 14Z" fill="#16A34A"/>
</svg>
