<svg width="210" height="210" viewBox="0 0 210 210" fill="none" xmlns="http://www.w3.org/2000/svg">
<g clip-path="url(#clip0_4_105)">
<path d="M16.7977 130.65C24.1142 134.887 34.2391 133.045 42.1349 131.846C43.8188 131.59 65.9583 127.013 65.965 127.059C66.1882 128.93 53.6616 134.935 52.1651 136.005C45.4042 140.839 38.5587 147.438 36.7738 155.883C32.4588 176.332 59.8714 201.863 77.9426 206.36C94.9702 210.597 110.966 200.226 116.737 184.22C120.818 172.894 122.062 159.659 119.654 147.823C119.095 145.083 112.539 131.204 113.682 129.05C114.62 127.286 128.873 138.9 129.785 139.747C137.264 146.681 143.426 155.227 146.677 164.956C148.324 169.88 147.348 183.715 154.499 184.219C166.31 185.052 168.36 177.959 164.752 168.675C160.545 157.861 154.882 147.564 147.469 138.609C145.745 136.521 126.495 118.87 126.521 118.83C127.463 117.574 139.292 121.431 140.636 121.686C149.356 123.339 158.25 124.295 167.128 124.256C183.761 124.185 207.403 120.323 209.669 99.9862C211.739 81.4439 203.965 55.2016 189.525 43.0762C179.143 34.3549 169.937 36.5659 160.256 44.9866C155.459 49.1597 150.944 53.6654 146.797 58.4877C145.646 59.8256 138.52 71.0008 136.866 70.4758C135.945 70.1841 144.108 55.7303 144.379 55.1894C148.244 47.4287 152.44 38.4085 151.933 29.5196C150.909 11.5599 133.032 4.08469 117.331 2.90217C98.7283 1.5058 69.5016 6.65517 62.0605 27.0097C58.507 36.7309 64.7324 47.9638 68.4261 56.7596C69.0861 58.3319 78.1236 78.974 77.9005 78.9942C74.222 79.3302 67.4915 66.4711 65.7301 64.2218C59.8697 56.7318 52.9502 48.8234 44.1324 44.7993C25.2012 36.1516 8.4409 57.2749 3.32185 73.0324C-2.56044 91.1596 -2.07926 119.716 16.7977 130.65Z" fill="#16A34A"/>
</g>
<defs>
<clipPath id="clip0_4_105">
<rect width="210" height="210" fill="white"/>
</clipPath>
</defs>
</svg>
