<svg width="210" height="210" viewBox="0 0 210 210" fill="none" xmlns="http://www.w3.org/2000/svg">
<g clip-path="url(#clip0_4_100)">
<path d="M156.89 116.626C160.32 114.026 164.645 112.599 168.659 111.184C173.084 109.622 178.12 108.409 182.024 105.699C183.859 98.9625 184.818 92.1713 184.057 85.1943C182.757 73.2941 180.483 61.7711 179.949 49.7619C165.614 57.9774 148.825 62.8476 144.14 80.5969C143.119 84.4546 138.058 95.6871 132.118 92.0946C127.595 89.3518 130.237 82.6594 132.51 79.4425C137.791 71.9789 144.289 65.8191 144.545 55.9814C144.763 47.5187 139.041 40.3279 134.099 33.9791C125.008 22.305 113.759 12.5982 105.179 0.495105V0C105.12 0.0837806 105.059 0.164614 105 0.248395C104.941 0.164614 104.879 0.0837806 104.821 0V0.496368C96.241 12.5999 84.9904 22.3054 75.9008 33.9804C70.9595 40.3283 65.2358 47.5204 65.4544 55.9827C65.7103 65.8208 72.2082 71.9806 77.4897 79.4442C79.7619 82.6611 82.4041 89.3535 77.8821 92.0963C71.9421 95.6888 66.8807 84.4571 65.8589 80.5986C61.1744 62.8506 44.3854 57.9804 30.051 49.7636C29.5154 61.7728 27.2433 73.2962 25.9432 85.196C25.1816 92.1734 26.1411 98.9625 27.9762 105.701C31.8794 108.412 36.9151 109.624 41.3415 111.187C45.3554 112.6 49.68 114.028 53.1108 116.628C56.8532 119.469 56.5702 125.959 50.6862 125.227C42.2593 124.163 34.6597 116.019 25.9609 116.732C30.1592 138.235 40.5151 157.98 61.5419 167.104C69.3297 170.483 72.686 169.063 79.167 163.921C84.5357 159.66 88.5454 155.173 95.4116 153.591C98.141 152.962 100.842 154.363 100.947 151.348C101.03 148.911 101.112 146.478 101.196 144.041C102.098 117.614 104.099 102.169 105 75.744C105.902 102.169 107.903 117.614 108.806 144.041C108.889 146.478 108.971 148.911 109.055 151.348C109.16 154.364 111.86 152.962 114.59 153.591C121.458 155.173 125.466 159.661 130.835 163.921C137.317 169.063 140.672 170.483 148.46 167.104C169.486 157.982 179.843 138.236 184.042 116.732C175.343 116.019 167.743 124.162 159.316 125.227C153.43 125.958 153.148 119.466 156.89 116.626Z" fill="#16A34A"/>
<path d="M110.588 69H99.4106V210H110.588V69Z" fill="#16A34A"/>
</g>
<defs>
<clipPath id="clip0_4_100">
<rect width="210" height="210" fill="white"/>
</clipPath>
</defs>
</svg>
