<svg width="210" height="210" viewBox="0 0 210 210" fill="none" xmlns="http://www.w3.org/2000/svg">
<g clip-path="url(#clip0_4_121)">
<path d="M72.4675 153.079C84.3251 131.079 127.888 42.0121 146.425 5.0218C148.087 1.70238 148.855 0.709532 148.41 0.233419C145.936 -2.42223 119.692 17.9977 93.5487 41.2162C92.1358 42.4708 91.5383 44.4251 91.7615 46.4319C92.5815 53.7962 94.9127 64.8255 94.2767 64.9962C93.8114 65.1211 89.1696 56.5279 87.1823 52.6758C86.5473 51.4439 84.9354 50.5842 83.6367 52.2079C79.1876 57.7707 75.6266 62.8141 73.338 65.8805C72.3056 67.2636 72.1678 68.7413 72.3971 69.657C74.8728 79.5197 78.0117 96.3518 77.1089 96.595C76.4554 96.7703 71.6804 89.3839 67.1974 81.2982C66.7264 80.4488 65.0554 79.2276 63.7489 82.0036C44.2272 123.494 51.227 142.104 68.3959 153.304C71.4505 155.297 72.2598 153.463 72.4675 153.079Z" fill="#16A34A"/>
<path d="M157.962 53.171C157.558 27.8326 158.474 4.04128 156.31 3.40886C155.15 3.06952 155.01 3.85927 153.381 7.15093C145.187 23.708 122.001 70.8694 122.001 70.8694C121.834 71.0699 121.681 71.2864 121.561 71.5301L55.4579 205.114C54.6286 206.79 55.315 208.819 56.9901 209.647C57.4724 209.886 57.984 210 58.4884 210C59.7342 210 60.9337 209.308 61.523 208.115L84.8762 160.922C103.825 164.891 124.941 160.745 141.76 121.127C149.478 102.948 152.097 95.8314 157.963 69.5233C158.251 68.2374 157.564 66.8456 155.316 66.9042C146.669 67.1315 138.653 67.7685 138.418 67.1448C138.113 66.3376 145.319 63.5879 155.361 57.5573C155.967 57.1902 158.006 55.986 157.962 53.171Z" fill="#16A34A"/>
</g>
<defs>
<clipPath id="clip0_4_121">
<rect width="210" height="210" fill="white"/>
</clipPath>
</defs>
</svg>
