<svg width="210" height="210" viewBox="0 0 210 210" fill="none" xmlns="http://www.w3.org/2000/svg">
<path d="M143.611 81.0707C145.099 68.6164 144.193 56.3725 139.969 48.0829C132.174 32.7818 119.858 21.3484 110.042 14C109.868 35.4531 112.287 48.5744 124.876 63.3745C128.056 67.1126 136.362 74.7072 143.611 81.0707Z" fill="#16A34A"/>
<path d="M139.912 85.1349C139.912 85.1349 124.242 71.4628 119.136 65.2701C105.798 49.0945 104.521 34.054 104.521 11.3513C104.521 0 88.8309 0 88.8309 0C88.8309 0 88.4745 7.39255 87.4943 17.5849C86.3705 29.2682 83.9288 44.6311 71.8039 56.7566C54.2224 74.3375 67.2731 88.5119 74.0572 94.0145C59.7363 110.81 73.1559 124.024 79.2073 128.705C65.6311 145.35 79.1579 158.38 85.0504 162.888C77.9399 173.625 87.1413 183.826 93.5763 189.148C94.8959 201.166 99.294 210 104.521 210C110.037 210 114.631 200.164 115.657 187.125L115.872 187.297C129.641 176.972 128.448 164.558 125.377 156.387C141.189 144.851 138.256 131.455 134.956 124.308C156.565 107.346 139.912 85.1349 139.912 85.1349Z" fill="#16A34A"/>
</svg>
