<svg width="210" height="168" viewBox="0 0 210 168" fill="none" xmlns="http://www.w3.org/2000/svg">
<path d="M200.025 60.0781C181.824 20.5247 110.725 -8.46505 68.7323 3.048C66.7654 3.58957 65.0126 4.27679 63.2598 4.96272C63.9636 4.93239 64.6658 4.81152 65.3705 4.81152C94.5064 4.81152 120.292 31.2254 125.352 66.2609C128.006 84.608 124.677 102.728 115.975 117.286C107.132 132.077 93.8294 141.438 78.5108 143.646C76.2433 143.979 73.9357 144.145 71.6498 144.145C70.269 144.145 68.9091 144.029 67.5424 143.915C70.1827 147.406 72.9226 150.477 75.7637 153.143C94.5405 170.746 122.958 172.792 144.101 158.124C159.144 147.693 179.084 136.65 198.104 134.698C201.149 134.384 203.795 132.429 204.979 129.606C213.266 109.911 211.075 84.1036 200.025 60.0781Z" fill="#16A34A"/>
<path d="M77.5218 136.793C90.7369 134.885 102.281 126.694 110.028 113.733C117.91 100.536 120.921 84.0301 118.492 67.253C113.925 35.6041 91.0816 11.7396 65.3707 11.7396C63.4286 11.7396 61.4657 11.8784 59.5044 12.159C54.1656 12.9303 49.1253 14.7741 44.4767 17.4931C67.062 16.5389 87.4093 36.7637 91.2977 63.7507C93.2948 77.5573 90.7839 91.2055 84.2278 102.173C77.5291 113.375 67.4336 120.469 55.7963 122.145C54.0571 122.395 52.3119 122.52 50.5869 122.52C45.248 122.52 40.0583 121.329 35.2068 119.177C46.3376 131.978 61.601 139.1 77.5218 136.793Z" fill="#16A34A"/>
<path d="M54.8087 115.287C64.3417 113.913 72.6788 107.992 78.2807 98.6175C84.0261 89.0098 86.2108 76.9799 84.4391 64.7429C81.1163 41.7202 64.5664 24.3622 45.939 24.3622C44.5377 24.3622 43.13 24.4601 41.7154 24.6625C36.2429 25.4548 31.3021 27.7791 27.04 31.1917C40.7749 32.4004 52.5075 45.0867 54.8967 61.6733C57.6438 80.691 47.0879 98.0123 31.3777 100.282C30.2211 100.451 29.062 100.533 27.9135 100.533C25.9168 100.533 23.9615 100.239 22.0476 99.7677C30.2403 110.754 42.2779 117.103 54.8087 115.287Z" fill="#16A34A"/>
<path d="M30.6325 95.1397C43.5093 93.2788 52.089 78.6 49.7549 62.4191C47.6027 47.5059 36.9059 36.2598 24.8747 36.2598C23.9748 36.2598 23.0685 36.3251 22.1558 36.4562C21.3626 36.572 20.625 36.8692 19.8614 37.0794C25.0785 40.3578 29.1313 46.7789 30.255 54.5758C32.0211 66.7824 25.9639 77.7983 16.7623 79.1305C16.1319 79.2189 15.5104 79.2663 14.8882 79.2663C10.99 79.2663 7.30875 77.463 4.25195 74.5203C8.1967 87.7281 18.9943 96.784 30.6325 95.1397Z" fill="#16A34A"/>
<path d="M16.2621 75.7016C23.5827 74.6424 28.3188 65.3849 26.8304 55.0699C25.4367 45.4391 19.1514 38.1753 12.2157 38.1753C11.7629 38.1753 11.3089 38.2056 10.8481 38.2731C3.52835 39.3353 -1.21466 48.5928 0.272951 58.9108C1.74262 69.023 8.98761 76.7758 16.2621 75.7016Z" fill="#16A34A"/>
</svg>
