<svg width="149" height="210" viewBox="0 0 149 210" fill="none" xmlns="http://www.w3.org/2000/svg">
<path d="M148.502 109.64C146.366 75.1589 98.4583 40.6752 76.307 20.6143C68.9204 13.9333 67.3438 0 67.3438 0C67.3438 0 52.9012 9.68207 37.9338 32.1045C33.8414 38.252 31.2373 51.9802 27.0213 58.7186C21.0106 68.3389 10.0408 78.2591 4.93187 87.9544C-0.75477 98.7566 -0.245419 109.294 0.34331 118.809C3.18332 164.771 75.5177 131.992 75.5177 131.992L71.76 133.571C75.1976 173.058 50.5 203.5 51.5 204.5L58.9428 210.002C60.1776 208.251 84.0774 173.918 81.2969 133.571C98.9257 137.996 150.855 147.837 148.502 109.64Z" fill="#16A34A"/>
</svg>
