<svg width="180" height="194" viewBox="0 0 180 194" fill="none" xmlns="http://www.w3.org/2000/svg">
<path d="M30.2218 155.924C27.5116 155.241 30.7045 153.111 28.0039 152.285L24.9999 151.367L24.0818 148.363C23.397 146.119 22.7777 143.87 22.1916 141.618C5.97716 163.069 0.0222168 179.02 0.0222168 191.618L11.0222 193.847C16.2897 193.847 18.6903 171.328 30.2218 155.924Z" fill="#16A34A"/>
<path d="M179.975 0.5C168.146 1.03277 142.981 7.27859 137.006 10.3162L124.185 16.8349L128.724 3.18781C128.773 3.03917 128.822 2.89247 128.868 2.74576C118.999 5.50538 103.712 12.5619 94.4237 19.742L80.7823 30.2867L85.0908 13.5927C85.1155 13.4947 85.1402 13.3989 85.1638 13.3032C72.6023 21.2068 59.4346 36.1781 54.4246 41.8746C53.7193 42.6768 53.124 43.3524 52.6526 43.8759L41.718 56.0251L42.3415 40.1415C22.1165 63.8928 8.74232 103.13 17.5883 147.83C18.3786 151.826 19.3295 155.86 20.4861 159.936C23.6971 160.848 26.9138 161.645 30.1332 162.34C40.3165 164.539 50.5211 165.654 60.6068 165.654C95.327 165.654 123.071 152.509 140.213 138.074L124.585 138.528L136.542 127.766C137.065 127.295 137.742 126.7 138.545 125.994C144.24 120.985 159.212 107.817 167.116 95.2551C167.02 95.2798 166.923 95.3045 166.827 95.3281L150.133 99.6366L160.678 85.9952C167.844 76.725 174.91 61.3957 177.674 51.5514C177.528 51.5973 177.38 51.646 177.233 51.6954L163.587 56.2328L170.103 43.4127C173.831 36.0851 179.452 10.6621 179.975 0.5Z" fill="#16A34A"/>
</svg>
