<svg width="210" height="212" viewBox="0 0 210 212" fill="none" xmlns="http://www.w3.org/2000/svg">
<path fill-rule="evenodd" clip-rule="evenodd" d="M161.761 188.956C163.554 187.457 165.24 185.878 166.82 184.26C140.408 172.281 120.371 157.742 102.311 143.031C80.7462 142.978 58.5173 137.486 47.1373 123.437C64.0945 131.967 81.9413 132.007 87.9567 131.198C36.9789 85.2196 22.8634 40.2629 22.8634 40.2629C40.3119 67.5898 58.7298 88.7084 76.7625 105.476C69.2068 91.0432 73.6287 64.353 73.6287 64.353C88.3285 116.062 90.0548 116.884 89.0854 117.335C101.036 127.006 113.983 136.093 124.766 143.031C120.888 134.01 118.14 120.864 118.498 98.3392C118.498 98.3392 128.086 145.591 143.144 157.225C155.135 164.136 165.692 169.495 173.871 173.568C186.832 154.253 186.898 102.757 155.135 82.0757C120.902 59.7631 63.1782 58.9141 4.79075 1.846C-12.671 -15.2267 19.7827 134.978 66.8034 176.858C95.6983 202.659 133.304 212.688 161.761 188.956Z" fill="#16A34A"/>
<path fill-rule="evenodd" clip-rule="evenodd" d="M148.097 187.138C148.097 187.138 163.766 195.27 181.746 203.203C199.726 211.136 208.344 209.531 209.353 211.494C210.389 213.484 209.871 189.712 209.871 189.712C209.871 189.712 185.597 195.456 158.574 180.479L148.097 187.138Z" fill="#16A34A"/>
</svg>
