<svg width="164" height="211" viewBox="0 0 164 211" fill="none" xmlns="http://www.w3.org/2000/svg">
<path d="M163.437 133.141C159.381 75.2265 72.1249 0.5 72.1249 0.5C72.1249 0.5 -3.89693 86.6501 0.15652 144.547C3.8766 197.739 45.9802 210.557 78.4184 210.5C78.9535 202.724 79.2763 188.496 79.2763 188.496C75.7409 187.509 72.1546 186.23 69.201 184.746C66.3197 183.264 63.5869 181.533 61.0304 179.625C55.9111 175.809 51.5795 171.087 48.4348 165.855C52.8237 170.106 57.9495 173.327 63.3873 175.505C66.0861 176.588 68.8762 177.452 71.6683 178.07C74.4138 178.673 77.4226 179.102 79.8835 179.109C79.8835 179.109 80.5864 161.676 80.5864 148.734C77.3185 147.762 74.6261 146.556 71.8509 145.146C68.9547 143.67 66.222 141.948 63.6655 140.037C58.5461 136.215 54.2145 131.499 51.0677 126.255C55.4567 130.527 60.5973 133.737 66.0224 135.92C68.7403 137.009 71.5112 137.882 74.3013 138.483C76.3503 138.927 78.531 139.275 80.5269 139.436C80.3931 129.333 80.0704 118.908 79.5332 108.249L79.2423 110.211C76.7898 109.397 75.0317 108.423 73.1122 107.306C71.2522 106.206 69.5408 104.951 67.9376 103.582C64.7399 100.853 62.1282 97.5725 60.3488 94.0584C63.3852 96.5937 66.7868 98.3815 70.2924 99.475C72.0484 100.016 73.8235 100.414 75.5816 100.641C76.741 100.789 77.9895 100.896 79.0979 100.896C78.9811 98.9909 78.8686 97.0757 78.7348 95.1583C76.191 58.6858 78.3717 71.43 82.0154 100.866C83.2639 100.923 84.7906 100.819 86.175 100.632C87.948 100.403 89.7273 100.008 91.4791 99.4729C94.9868 98.3879 98.4054 96.6064 101.421 94.0711C99.6539 97.5853 97.0316 100.857 93.8338 103.586C92.235 104.957 90.5066 106.204 88.6593 107.304C86.9203 108.321 85.2577 109.194 83.1407 109.962C84.0219 117.39 84.9817 125.511 85.9584 133.956C88.2898 133.899 91.0353 133.491 93.5557 132.939C96.3606 132.327 99.1379 131.472 101.854 130.38C107.275 128.202 112.405 124.989 116.808 120.723C113.655 125.964 109.324 130.677 104.208 134.493C101.65 136.396 98.9171 138.126 96.0251 139.615C93.1756 141.061 90.4004 142.296 87.0137 143.271C88.4767 156.087 90.9525 175.083 90.9525 175.083C93.3922 175.083 96.3925 174.639 99.1464 174.042C101.951 173.433 104.744 172.569 107.444 171.479C112.867 169.299 117.997 166.08 122.399 161.829C119.246 167.061 114.916 171.783 109.806 175.605C107.241 177.508 104.51 179.238 101.618 180.72C98.6814 182.217 95.8553 183.498 92.3029 184.483C92.3029 184.483 93.4792 201.225 94.3668 209.428C126.631 205.164 167.193 186.744 163.437 133.141Z" fill="#16A34A"/>
</svg>
