<svg width="210" height="203" viewBox="0 0 210 203" fill="none" xmlns="http://www.w3.org/2000/svg">
<path d="M204.645 7.15678L205.148 6.62235C205.148 6.62235 204.802 6.46516 204.252 6.2451C204.032 5.71067 203.89 5.36486 203.89 5.36486L203.403 5.88357C197.068 3.25857 174.701 -4.94652 167.533 6.16651C159.139 19.1658 142.776 -2.54158 130.846 13.7114C119.78 28.7855 118.853 37.5093 89.4277 42.162C60.254 46.7518 52.1904 68.2863 57.3304 87.5887C62.4703 106.907 50.1941 106.561 48.0407 117.58C47.0347 123.144 46.123 128.85 45.7143 135.043C45.62 136.3 45.4786 138.815 45.4786 138.815C45.4786 138.815 47.1604 158.275 54.7211 159.297C62.2974 160.303 53.8094 159.973 53.385 160.366C53.385 160.366 20.9419 184.069 4.92467 186.396C-11.0768 188.722 17.3738 194.742 13.507 201.627C10.5834 206.877 39.0182 182.073 57.0946 164.61L57.236 164.924C111.119 116.668 168.099 47.2077 174.214 39.7099L174.622 39.2698C171.479 44.5041 109.107 148.105 71.65 165.018C72.9232 164.955 74.1807 164.893 75.4381 164.798C81.6627 164.405 87.3371 163.478 92.9172 162.472C103.904 160.287 103.59 148.042 122.892 153.166C142.211 158.322 163.745 150.243 168.335 121.085C172.972 91.6283 181.711 90.7324 196.801 79.6665C213.054 67.7361 191.331 51.3731 204.33 42.9794C215.428 35.8432 207.27 13.57 204.645 7.15678Z" fill="#16A34A"/>
</svg>
