<svg width="210" height="178" viewBox="0 0 210 178" fill="none" xmlns="http://www.w3.org/2000/svg">
<path d="M127.697 64.4472C127.697 64.4472 121.463 73.6575 118.82 64.4472C116.176 55.2286 107.631 23.3084 104.173 21.0058C100.707 18.6949 100.707 18.6949 100.707 18.6949C100.707 18.6949 100.058 31.2136 95.7689 29.5594C91.4879 27.9135 59.9169 11.1305 57.2818 7.51455L54.6467 4.21446C54.6467 4.21446 57.5977 31.8786 50.3657 25.9518C50.3657 25.9518 59.6176 48.9859 28.9776 51.2884C28.9776 51.2884 38.8362 76.9493 66.8163 90.7731C66.8163 90.7731 76.3591 105.594 58.9277 103.267C58.9277 103.267 34.5553 99.9834 31.2884 97.0158C31.2884 97.0158 18.4206 122.037 0 123.017C0 123.017 22.0781 135.52 19.4264 157.564C19.4264 157.564 61.8786 157.905 60.2494 164.48C58.5869 171.089 55.6359 177.789 55.6359 177.789C55.6359 177.789 94.788 170.066 100.707 159.551C100.707 159.551 108.928 167.781 109.609 175.669C109.609 175.669 131.995 170.731 129.992 156.584C129.992 156.584 140.54 164.464 141.854 177.789L146.459 174.672C146.459 174.672 143.807 160.864 134.289 150.008C134.289 150.008 129.992 139.135 140.848 144.746C140.848 144.746 166.492 153.3 188.229 137.822C188.229 137.822 164.223 129.942 163.242 121.38C163.242 121.38 208.08 93.7323 210 75.3117C210 75.3117 193.84 76.9576 185.295 70.0499C185.295 70.0499 174.414 66.7581 188.57 30.2244C188.57 30.2244 178.371 36.2427 175.104 0C175.104 0 149.742 38.7781 137.548 25.6193C137.548 25.6193 126.06 50.9476 127.697 64.4472Z" fill="#16A34A"/>
</svg>
