<svg width="153" height="210" viewBox="0 0 153 210" fill="none" xmlns="http://www.w3.org/2000/svg">
<path d="M137.955 93.8719C151.725 88.5836 154.469 83.9865 150.702 69.4944C146.765 54.3594 135.36 46.845 120.092 49.1773C118.016 49.5017 98.5971 60.14 96.5814 60.6111C97.3286 59.9219 115.433 48.9572 116.161 48.2158C124.809 39.3518 126.454 29.8681 121.353 18.3802C116.586 7.64921 105.42 -1.3229 95.3187 1.26814C76.108 6.18765 84.0742 6.51394 64.7919 0.80863C52.7036 -2.76323 42.0865 5.83046 35.1127 20.0291C30.8709 28.6768 38.5012 39.5044 44.0694 47.2833C55.7677 57.6977 34.7343 42.9797 33.6434 42.6959C21.6555 39.6241 12.6042 42.9391 5.19408 53.0813C-4.32443 66.1176 3.35989 92.1284 4.68051 92.2616C22.4336 94.1287 21.0802 86.0447 13.4692 104.995C8.76787 116.697 33.823 128.054 49.6145 127.017C61.2626 126.256 67.5954 128.774 71.4684 115.679C72.1731 113.301 72.7273 115.052 73.2524 113.009C76.7779 128.075 79.9656 131.206 84.0356 146.423C89.9224 168.466 99.9641 188.543 114.572 206.179C116.462 208.459 118.986 211.623 122.171 209.021C125.278 206.464 122.119 203.999 120.447 202.01C105.084 183.72 95.9076 162.392 89.7293 139.605C85.5686 124.202 91.0383 113.202 97.3016 119.722C118.717 142.055 155.143 128.808 134.296 98.3589C132.709 96.0536 135.557 94.7948 137.955 93.8719Z" fill="#16A34A"/>
</svg>
