<svg width="500" height="500" viewBox="0 0 500 500" fill="none" xmlns="http://www.w3.org/2000/svg">
<rect width="500" height="500" fill="#092517"/>
<path d="M147.571 256.768C139.318 256.768 132.008 255 125.642 251.463C119.394 247.926 114.56 242.975 111.141 236.608C107.722 230.242 106.013 222.815 106.013 214.326C106.013 205.72 107.722 198.234 111.141 191.867C114.678 185.501 119.629 180.608 125.996 177.189C132.362 173.653 139.848 171.884 148.455 171.884C157.061 171.884 164.371 173.535 170.383 176.836C176.396 180.137 180.994 184.912 184.177 191.16C187.478 197.291 189.128 204.718 189.128 213.442C189.128 214.385 189.069 215.387 188.952 216.448C188.952 217.509 188.893 218.276 188.775 218.747H117.331V205.661H172.505L166.669 213.796C167.023 213.088 167.377 212.145 167.731 210.966C168.202 209.669 168.438 208.608 168.438 207.783C168.438 203.421 167.554 199.648 165.785 196.465C164.135 193.282 161.777 190.806 158.712 189.038C155.764 187.269 152.286 186.385 148.278 186.385C143.444 186.385 139.318 187.446 135.899 189.568C132.48 191.691 129.886 194.756 128.118 198.764C126.349 202.773 125.406 207.724 125.288 213.619C125.288 219.514 126.173 224.524 127.941 228.651C129.709 232.659 132.303 235.724 135.722 237.846C139.259 239.968 143.503 241.029 148.455 241.029C153.642 241.029 158.181 239.968 162.072 237.846C165.962 235.724 169.204 232.482 171.798 228.12L188.244 234.84C184 242.149 178.518 247.632 171.798 251.286C165.078 254.941 157.002 256.768 147.571 256.768ZM248.386 214.326C248.386 219.514 249.506 224.053 251.746 227.943C253.986 231.716 256.992 234.722 260.765 236.962C264.655 239.202 268.958 240.322 273.674 240.322C277.565 240.322 281.278 239.733 284.815 238.554C288.352 237.375 291.476 235.724 294.188 233.602C296.899 231.48 298.904 229.122 300.2 226.528V247.573C297.371 250.402 293.539 252.642 288.706 254.293C283.872 255.943 278.567 256.768 272.79 256.768C264.419 256.768 256.874 255 250.154 251.463C243.552 247.808 238.306 242.798 234.415 236.432C230.643 229.947 228.756 222.579 228.756 214.326C228.756 205.956 230.643 198.587 234.415 192.221C238.306 185.855 243.552 180.903 250.154 177.366C256.874 173.712 264.419 171.884 272.79 171.884C278.567 171.884 283.872 172.709 288.706 174.36C293.539 176.011 297.371 178.251 300.2 181.08V202.124C298.904 199.413 296.84 197.055 294.011 195.051C291.299 192.928 288.175 191.278 284.638 190.099C281.102 188.92 277.447 188.331 273.674 188.331C268.958 188.331 264.655 189.451 260.765 191.691C256.992 193.931 253.986 196.996 251.746 200.886C249.506 204.777 248.386 209.257 248.386 214.326ZM343.416 214.326C343.416 205.956 345.303 198.587 349.075 192.221C352.966 185.855 358.212 180.903 364.814 177.366C371.416 173.712 378.903 171.884 387.273 171.884C395.644 171.884 403.071 173.712 409.555 177.366C416.157 180.903 421.404 185.855 425.294 192.221C429.185 198.587 431.13 205.956 431.13 214.326C431.13 222.579 429.185 229.947 425.294 236.432C421.404 242.798 416.157 247.808 409.555 251.463C403.071 255 395.644 256.768 387.273 256.768C378.903 256.768 371.416 255 364.814 251.463C358.212 247.808 352.966 242.798 349.075 236.432C345.303 229.947 343.416 222.579 343.416 214.326ZM363.046 214.326C363.046 219.396 364.107 223.876 366.229 227.766C368.351 231.539 371.239 234.545 374.894 236.785C378.549 238.907 382.675 239.968 387.273 239.968C391.753 239.968 395.82 238.907 399.475 236.785C403.248 234.545 406.195 231.539 408.317 227.766C410.439 223.876 411.5 219.396 411.5 214.326C411.5 209.257 410.439 204.777 408.317 200.886C406.195 196.996 403.248 193.989 399.475 191.867C395.82 189.745 391.753 188.684 387.273 188.684C382.675 188.684 378.549 189.745 374.894 191.867C371.239 193.989 368.351 196.996 366.229 200.886C364.107 204.777 363.046 209.257 363.046 214.326Z" fill="white"/>
<path d="M123.531 349.581C119.27 349.581 115.203 349 111.33 347.838C107.521 346.676 104.519 345.256 102.324 343.577L106.198 336.218C108.392 337.702 111.104 338.961 114.332 339.994C117.56 341.027 120.852 341.544 124.209 341.544C128.534 341.544 131.633 340.93 133.505 339.704C135.442 338.477 136.41 336.766 136.41 334.571C136.41 332.957 135.829 331.699 134.667 330.795C133.505 329.891 131.956 329.213 130.019 328.761C128.147 328.309 126.049 327.922 123.725 327.599C121.401 327.212 119.077 326.76 116.753 326.244C114.429 325.662 112.298 324.888 110.361 323.919C108.425 322.887 106.875 321.499 105.713 319.755C104.551 317.948 103.97 315.559 103.97 312.59C103.97 309.491 104.842 306.779 106.585 304.455C108.328 302.131 110.781 300.356 113.944 299.129C117.172 297.838 120.981 297.193 125.371 297.193C128.728 297.193 132.117 297.612 135.539 298.452C139.025 299.226 141.865 300.356 144.06 301.841L140.09 309.2C137.766 307.651 135.345 306.586 132.827 306.005C130.31 305.424 127.792 305.133 125.274 305.133C121.207 305.133 118.173 305.811 116.172 307.167C114.17 308.458 113.17 310.136 113.17 312.202C113.17 313.945 113.751 315.301 114.913 316.269C116.139 317.173 117.689 317.883 119.561 318.4C121.498 318.916 123.628 319.368 125.952 319.755C128.276 320.078 130.6 320.53 132.924 321.111C135.248 321.628 137.346 322.37 139.219 323.338C141.155 324.307 142.705 325.662 143.867 327.406C145.093 329.149 145.707 331.473 145.707 334.378C145.707 337.477 144.803 340.156 142.995 342.415C141.188 344.675 138.638 346.45 135.345 347.741C132.053 348.968 128.115 349.581 123.531 349.581ZM184.536 349.581C180.275 349.581 176.369 348.613 172.818 346.676C169.332 344.675 166.524 341.737 164.394 337.864C162.328 333.99 161.295 329.149 161.295 323.338C161.295 317.528 162.296 312.686 164.297 308.813C166.363 304.94 169.139 302.034 172.625 300.098C176.175 298.161 180.146 297.193 184.536 297.193C189.571 297.193 194.026 298.29 197.899 300.485C201.772 302.68 204.839 305.747 207.098 309.685C209.358 313.558 210.488 318.109 210.488 323.338C210.488 328.568 209.358 333.151 207.098 337.089C204.839 341.027 201.772 344.094 197.899 346.289C194.026 348.484 189.571 349.581 184.536 349.581ZM157.325 367.786V297.677H166.234V311.524L165.653 323.435L166.621 335.346V367.786H157.325ZM183.761 341.447C187.053 341.447 189.991 340.704 192.573 339.22C195.22 337.735 197.286 335.637 198.771 332.925C200.32 330.149 201.095 326.954 201.095 323.338C201.095 319.659 200.32 316.495 198.771 313.848C197.286 311.137 195.22 309.039 192.573 307.554C189.991 306.069 187.053 305.327 183.761 305.327C180.533 305.327 177.596 306.069 174.949 307.554C172.367 309.039 170.301 311.137 168.751 313.848C167.267 316.495 166.524 319.659 166.524 323.338C166.524 326.954 167.267 330.149 168.751 332.925C170.301 335.637 172.367 337.735 174.949 339.22C177.596 340.704 180.533 341.447 183.761 341.447ZM250.737 297.193C254.933 297.193 258.613 298 261.776 299.614C265.004 301.228 267.522 303.681 269.329 306.973C271.137 310.266 272.041 314.43 272.041 319.465V349H262.744V320.53C262.744 315.559 261.518 311.815 259.065 309.297C256.676 306.779 253.287 305.521 248.897 305.521C245.604 305.521 242.732 306.166 240.278 307.457C237.825 308.748 235.921 310.653 234.565 313.171C233.274 315.688 232.628 318.819 232.628 322.564V349H223.332V277.148H232.628V311.524L230.789 307.845C232.467 304.488 235.049 301.873 238.535 300.001C242.021 298.129 246.089 297.193 250.737 297.193ZM312.098 349.581C306.611 349.581 301.769 348.451 297.573 346.192C293.441 343.932 290.213 340.833 287.889 336.895C285.63 332.957 284.5 328.438 284.5 323.338C284.5 318.238 285.597 313.719 287.792 309.781C290.052 305.843 293.118 302.777 296.992 300.582C300.93 298.322 305.352 297.193 310.258 297.193C315.229 297.193 319.619 298.29 323.428 300.485C327.237 302.68 330.207 305.779 332.337 309.781C334.532 313.719 335.629 318.335 335.629 323.629C335.629 324.016 335.597 324.468 335.533 324.985C335.533 325.501 335.5 325.985 335.436 326.437H291.763V319.755H330.594L326.817 322.08C326.882 318.787 326.204 315.85 324.784 313.267C323.364 310.685 321.395 308.684 318.877 307.264C316.424 305.779 313.551 305.036 310.258 305.036C307.031 305.036 304.158 305.779 301.64 307.264C299.122 308.684 297.153 310.717 295.733 313.364C294.313 315.947 293.603 318.916 293.603 322.273V323.823C293.603 327.244 294.377 330.311 295.927 333.022C297.541 335.669 299.768 337.735 302.608 339.22C305.449 340.704 308.709 341.447 312.389 341.447C315.423 341.447 318.167 340.93 320.62 339.897C323.138 338.864 325.333 337.315 327.205 335.249L332.337 341.253C330.013 343.965 327.108 346.03 323.622 347.451C320.2 348.871 316.359 349.581 312.098 349.581ZM348.538 349V297.677H357.447V311.621L356.576 308.135C357.996 304.585 360.384 301.873 363.741 300.001C367.098 298.129 371.23 297.193 376.136 297.193V306.198C375.749 306.134 375.362 306.102 374.974 306.102C374.652 306.102 374.329 306.102 374.006 306.102C369.035 306.102 365.097 307.586 362.192 310.556C359.287 313.526 357.834 317.819 357.834 323.435V349H348.538ZM409.975 349.581C404.487 349.581 399.645 348.451 395.449 346.192C391.318 343.932 388.09 340.833 385.766 336.895C383.506 332.957 382.376 328.438 382.376 323.338C382.376 318.238 383.474 313.719 385.669 309.781C387.928 305.843 390.995 302.777 394.868 300.582C398.806 298.322 403.228 297.193 408.135 297.193C413.106 297.193 417.496 298.29 421.304 300.485C425.113 302.68 428.083 305.779 430.213 309.781C432.408 313.719 433.506 318.335 433.506 323.629C433.506 324.016 433.474 324.468 433.409 324.985C433.409 325.501 433.377 325.985 433.312 326.437H389.639V319.755H428.47L424.694 322.08C424.758 318.787 424.08 315.85 422.66 313.267C421.24 310.685 419.271 308.684 416.753 307.264C414.3 305.779 411.427 305.036 408.135 305.036C404.907 305.036 402.034 305.779 399.516 307.264C396.999 308.684 395.03 310.717 393.609 313.364C392.189 315.947 391.479 318.916 391.479 322.273V323.823C391.479 327.244 392.254 330.311 393.803 333.022C395.417 335.669 397.644 337.735 400.485 339.22C403.325 340.704 406.585 341.447 410.265 341.447C413.299 341.447 416.043 340.93 418.496 339.897C421.014 338.864 423.209 337.315 425.081 335.249L430.213 341.253C427.889 343.965 424.984 346.03 421.498 347.451C418.077 348.871 414.235 349.581 409.975 349.581Z" fill="white"/>
<path d="M134.142 142.818C133.998 137.661 139.381 131.43 142.09 128.959C108.455 137.504 106.565 153.376 105.252 163.314C105.239 167.361 107.618 170.334 108.81 171.314C107.708 158.737 115.601 150.86 120.498 147.068C113.542 153.38 111.485 165.415 110.966 171.801C129.853 167.957 134.321 149.264 134.142 142.818Z" fill="#36B475"/>
<path d="M71.4884 191.025C66.6307 189.289 59.0372 192.472 55.8477 194.281C74.4078 164.958 90.0829 168.086 99.9372 169.922C103.789 171.166 105.877 174.35 106.439 175.787C94.8248 170.836 84.8868 175.896 79.7623 179.375C87.9216 174.72 100.001 176.5 106.232 177.988C96.7171 194.75 77.5606 193.196 71.4884 191.025Z" fill="#36B475"/>
<path d="M67.6733 144.301C66.1873 139.361 59.1183 135.139 55.7695 133.646C90.3847 131.177 97.1713 145.649 101.543 154.67C102.828 158.508 101.505 162.078 100.682 163.383C97.7728 151.098 87.8018 146.103 81.9608 144.044C90.5497 147.847 96.2875 158.625 98.7881 164.524C79.6508 166.815 69.5308 150.476 67.6733 144.301Z" fill="#36B475"/>
</svg>
