<svg width="411" height="307" viewBox="0 0 411 307" fill="none" xmlns="http://www.w3.org/2000/svg">
<path d="M120.571 190.768C112.318 190.768 105.008 189 98.6421 185.463C92.3937 181.926 87.56 176.975 84.1411 170.608C80.7221 164.242 79.0126 156.815 79.0126 148.326C79.0126 139.72 80.7221 132.234 84.1411 125.867C87.6779 119.501 92.6295 114.608 98.9958 111.189C105.362 107.653 112.848 105.884 121.455 105.884C130.061 105.884 137.371 107.535 143.383 110.836C149.396 114.137 153.994 118.912 157.177 125.16C160.478 131.291 162.128 138.718 162.128 147.442C162.128 148.385 162.069 149.387 161.952 150.448C161.952 151.509 161.893 152.276 161.775 152.747H90.3305V139.661H145.505L139.669 147.796C140.023 147.088 140.377 146.145 140.731 144.966C141.202 143.669 141.438 142.608 141.438 141.783C141.438 137.421 140.554 133.648 138.785 130.465C137.135 127.282 134.777 124.806 131.712 123.038C128.764 121.269 125.286 120.385 121.278 120.385C116.444 120.385 112.318 121.446 108.899 123.568C105.48 125.691 102.886 128.756 101.118 132.764C99.3495 136.773 98.4063 141.724 98.2884 147.619C98.2884 153.514 99.1726 158.524 100.941 162.651C102.709 166.659 105.303 169.724 108.722 171.846C112.259 173.968 116.503 175.029 121.455 175.029C126.642 175.029 131.181 173.968 135.072 171.846C138.962 169.724 142.204 166.482 144.798 162.12L161.244 168.84C157 176.149 151.518 181.632 144.798 185.286C138.078 188.941 130.002 190.768 120.571 190.768ZM221.386 148.326C221.386 153.514 222.506 158.053 224.746 161.943C226.986 165.716 229.992 168.722 233.765 170.962C237.655 173.202 241.958 174.322 246.674 174.322C250.565 174.322 254.278 173.733 257.815 172.554C261.352 171.375 264.476 169.724 267.188 167.602C269.899 165.48 271.904 163.122 273.2 160.528V181.573C270.371 184.402 266.539 186.642 261.706 188.293C256.872 189.943 251.567 190.768 245.79 190.768C237.419 190.768 229.874 189 223.154 185.463C216.552 181.808 211.306 176.798 207.415 170.432C203.643 163.947 201.756 156.579 201.756 148.326C201.756 139.956 203.643 132.587 207.415 126.221C211.306 119.855 216.552 114.903 223.154 111.366C229.874 107.712 237.419 105.884 245.79 105.884C251.567 105.884 256.872 106.709 261.706 108.36C266.539 110.011 270.371 112.251 273.2 115.08V136.124C271.904 133.413 269.84 131.055 267.011 129.051C264.299 126.928 261.175 125.278 257.638 124.099C254.102 122.92 250.447 122.331 246.674 122.331C241.958 122.331 237.655 123.451 233.765 125.691C229.992 127.931 226.986 130.996 224.746 134.886C222.506 138.777 221.386 143.257 221.386 148.326ZM316.416 148.326C316.416 139.956 318.303 132.587 322.075 126.221C325.966 119.855 331.212 114.903 337.814 111.366C344.416 107.712 351.903 105.884 360.273 105.884C368.644 105.884 376.071 107.712 382.555 111.366C389.157 114.903 394.404 119.855 398.294 126.221C402.185 132.587 404.13 139.956 404.13 148.326C404.13 156.579 402.185 163.947 398.294 170.432C394.404 176.798 389.157 181.808 382.555 185.463C376.071 189 368.644 190.768 360.273 190.768C351.903 190.768 344.416 189 337.814 185.463C331.212 181.808 325.966 176.798 322.075 170.432C318.303 163.947 316.416 156.579 316.416 148.326ZM336.046 148.326C336.046 153.396 337.107 157.876 339.229 161.766C341.351 165.539 344.239 168.545 347.894 170.785C351.549 172.907 355.675 173.968 360.273 173.968C364.753 173.968 368.82 172.907 372.475 170.785C376.248 168.545 379.195 165.539 381.317 161.766C383.439 157.876 384.5 153.396 384.5 148.326C384.5 143.257 383.439 138.777 381.317 134.886C379.195 130.996 376.248 127.989 372.475 125.867C368.82 123.745 364.753 122.684 360.273 122.684C355.675 122.684 351.549 123.745 347.894 125.867C344.239 127.989 341.351 130.996 339.229 134.886C337.107 138.777 336.046 143.257 336.046 148.326Z" fill="white"/>
<path d="M96.5312 283.581C92.2704 283.581 88.2033 283 84.3298 281.838C80.5209 280.676 77.519 279.256 75.3241 277.577L79.1975 270.218C81.3925 271.702 84.1039 272.961 87.3317 273.994C90.5596 275.027 93.852 275.544 97.209 275.544C101.534 275.544 104.633 274.93 106.505 273.704C108.442 272.477 109.41 270.766 109.41 268.571C109.41 266.957 108.829 265.699 107.667 264.795C106.505 263.891 104.956 263.213 103.019 262.761C101.147 262.309 99.0489 261.922 96.7248 261.599C94.4008 261.212 92.0767 260.76 89.7526 260.244C87.4286 259.662 85.2982 258.888 83.3615 257.919C81.4247 256.887 79.8754 255.499 78.7133 253.755C77.5513 251.948 76.9703 249.559 76.9703 246.59C76.9703 243.491 77.8418 240.779 79.5849 238.455C81.3279 236.131 83.7811 234.356 86.9444 233.129C90.1723 231.838 93.9812 231.193 98.3711 231.193C101.728 231.193 105.117 231.612 108.539 232.452C112.025 233.226 114.865 234.356 117.06 235.841L113.09 243.2C110.766 241.651 108.345 240.586 105.827 240.005C103.31 239.424 100.792 239.133 98.2742 239.133C94.2071 239.133 91.1729 239.811 89.1716 241.167C87.1704 242.458 86.1697 244.136 86.1697 246.202C86.1697 247.945 86.7507 249.301 87.9128 250.269C89.1394 251.173 90.6887 251.883 92.5609 252.4C94.4976 252.916 96.628 253.368 98.9521 253.755C101.276 254.078 103.6 254.53 105.924 255.111C108.248 255.628 110.346 256.37 112.219 257.338C114.155 258.307 115.705 259.662 116.867 261.406C118.093 263.149 118.707 265.473 118.707 268.378C118.707 271.477 117.803 274.156 115.995 276.415C114.188 278.675 111.638 280.45 108.345 281.741C105.053 282.968 101.115 283.581 96.5312 283.581ZM157.536 283.581C153.275 283.581 149.369 282.613 145.818 280.676C142.332 278.675 139.524 275.737 137.394 271.864C135.328 267.99 134.295 263.149 134.295 257.338C134.295 251.528 135.296 246.686 137.297 242.813C139.363 238.94 142.139 236.034 145.625 234.098C149.175 232.161 153.146 231.193 157.536 231.193C162.571 231.193 167.026 232.29 170.899 234.485C174.772 236.68 177.839 239.747 180.098 243.685C182.358 247.558 183.488 252.109 183.488 257.338C183.488 262.568 182.358 267.151 180.098 271.089C177.839 275.027 174.772 278.094 170.899 280.289C167.026 282.484 162.571 283.581 157.536 283.581ZM130.325 301.786V231.677H139.234V245.524L138.653 257.435L139.621 269.346V301.786H130.325ZM156.761 275.447C160.053 275.447 162.991 274.704 165.573 273.22C168.22 271.735 170.286 269.637 171.771 266.925C173.32 264.149 174.095 260.954 174.095 257.338C174.095 253.659 173.32 250.495 171.771 247.848C170.286 245.137 168.22 243.039 165.573 241.554C162.991 240.069 160.053 239.327 156.761 239.327C153.533 239.327 150.596 240.069 147.949 241.554C145.367 243.039 143.301 245.137 141.751 247.848C140.267 250.495 139.524 253.659 139.524 257.338C139.524 260.954 140.267 264.149 141.751 266.925C143.301 269.637 145.367 271.735 147.949 273.22C150.596 274.704 153.533 275.447 156.761 275.447ZM223.737 231.193C227.933 231.193 231.613 232 234.776 233.614C238.004 235.228 240.522 237.681 242.329 240.973C244.137 244.266 245.041 248.43 245.041 253.465V283H235.744V254.53C235.744 249.559 234.518 245.815 232.065 243.297C229.676 240.779 226.287 239.521 221.897 239.521C218.604 239.521 215.732 240.166 213.278 241.457C210.825 242.748 208.921 244.653 207.565 247.171C206.274 249.688 205.628 252.819 205.628 256.564V283H196.332V211.148H205.628V245.524L203.789 241.845C205.467 238.488 208.049 235.873 211.535 234.001C215.021 232.129 219.089 231.193 223.737 231.193ZM285.098 283.581C279.611 283.581 274.769 282.451 270.573 280.192C266.441 277.932 263.213 274.833 260.889 270.895C258.63 266.957 257.5 262.438 257.5 257.338C257.5 252.238 258.597 247.719 260.792 243.781C263.052 239.843 266.118 236.777 269.992 234.582C273.93 232.322 278.352 231.193 283.258 231.193C288.229 231.193 292.619 232.29 296.428 234.485C300.237 236.68 303.207 239.779 305.337 243.781C307.532 247.719 308.629 252.335 308.629 257.629C308.629 258.016 308.597 258.468 308.533 258.985C308.533 259.501 308.5 259.985 308.436 260.437H264.763V253.755H303.594L299.817 256.08C299.882 252.787 299.204 249.85 297.784 247.267C296.364 244.685 294.395 242.684 291.877 241.264C289.424 239.779 286.551 239.036 283.258 239.036C280.031 239.036 277.158 239.779 274.64 241.264C272.122 242.684 270.153 244.717 268.733 247.364C267.313 249.947 266.603 252.916 266.603 256.273V257.823C266.603 261.244 267.377 264.311 268.927 267.022C270.541 269.669 272.768 271.735 275.608 273.22C278.449 274.704 281.709 275.447 285.389 275.447C288.423 275.447 291.167 274.93 293.62 273.897C296.138 272.864 298.333 271.315 300.205 269.249L305.337 275.253C303.013 277.965 300.108 280.03 296.622 281.451C293.2 282.871 289.359 283.581 285.098 283.581ZM321.538 283V231.677H330.447V245.621L329.576 242.135C330.996 238.585 333.384 235.873 336.741 234.001C340.098 232.129 344.23 231.193 349.136 231.193V240.198C348.749 240.134 348.362 240.102 347.974 240.102C347.652 240.102 347.329 240.102 347.006 240.102C342.035 240.102 338.097 241.586 335.192 244.556C332.287 247.526 330.834 251.819 330.834 257.435V283H321.538ZM382.975 283.581C377.487 283.581 372.645 282.451 368.449 280.192C364.318 277.932 361.09 274.833 358.766 270.895C356.506 266.957 355.376 262.438 355.376 257.338C355.376 252.238 356.474 247.719 358.669 243.781C360.928 239.843 363.995 236.777 367.868 234.582C371.806 232.322 376.228 231.193 381.135 231.193C386.106 231.193 390.496 232.29 394.304 234.485C398.113 236.68 401.083 239.779 403.213 243.781C405.408 247.719 406.506 252.335 406.506 257.629C406.506 258.016 406.474 258.468 406.409 258.985C406.409 259.501 406.377 259.985 406.312 260.437H362.639V253.755H401.47L397.694 256.08C397.758 252.787 397.08 249.85 395.66 247.267C394.24 244.685 392.271 242.684 389.753 241.264C387.3 239.779 384.427 239.036 381.135 239.036C377.907 239.036 375.034 239.779 372.516 241.264C369.999 242.684 368.03 244.717 366.609 247.364C365.189 249.947 364.479 252.916 364.479 256.273V257.823C364.479 261.244 365.254 264.311 366.803 267.022C368.417 269.669 370.644 271.735 373.485 273.22C376.325 274.704 379.585 275.447 383.265 275.447C386.299 275.447 389.043 274.93 391.496 273.897C394.014 272.864 396.209 271.315 398.081 269.249L403.213 275.253C400.889 277.965 397.984 280.03 394.498 281.451C391.077 282.871 387.235 283.581 382.975 283.581Z" fill="white"/>
<path d="M107.142 76.8179C106.998 71.6611 112.381 65.4303 115.09 62.9595C81.4552 71.5039 79.5647 87.3759 78.2521 97.3135C78.2392 101.361 80.6185 104.334 81.8097 105.314C80.7075 92.7372 88.6015 84.8599 93.4983 81.0678C86.5417 87.38 84.485 99.4155 83.9665 105.801C102.853 101.957 107.321 83.2639 107.142 76.8179Z" fill="#36B475"/>
<path d="M44.4884 125.025C39.6307 123.289 32.0372 126.472 28.8477 128.281C47.4078 98.9581 63.0829 102.086 72.9372 103.922C76.7891 105.166 78.8766 108.35 79.4389 109.787C67.8248 104.836 57.8868 109.896 52.7623 113.375C60.9216 108.72 73.0012 110.5 79.2324 111.988C69.7171 128.75 50.5606 127.196 44.4884 125.025Z" fill="#36B475"/>
<path d="M40.6733 78.3006C39.1873 73.3605 32.1183 69.1388 28.7695 67.6455C63.3847 65.1773 70.1713 79.6492 74.543 88.6696C75.8284 92.5079 74.5048 96.0779 73.6823 97.3832C70.7728 85.0978 60.8018 80.1031 54.9608 78.0437C63.5497 81.8475 69.2875 92.6253 71.7881 98.5236C52.6508 100.815 42.5308 84.4758 40.6733 78.3006Z" fill="#36B475"/>
</svg>
