<svg width="1315" height="526" viewBox="0 0 1315 526" fill="none" xmlns="http://www.w3.org/2000/svg">
<path d="M297.571 325.768C289.318 325.768 282.008 324 275.642 320.463C269.394 316.926 264.56 311.975 261.141 305.608C257.722 299.242 256.013 291.815 256.013 283.326C256.013 274.72 257.722 267.234 261.141 260.867C264.678 254.501 269.629 249.608 275.996 246.189C282.362 242.653 289.848 240.884 298.455 240.884C307.061 240.884 314.371 242.535 320.383 245.836C326.396 249.137 330.994 253.912 334.177 260.16C337.478 266.291 339.128 273.718 339.128 282.442C339.128 283.385 339.069 284.387 338.952 285.448C338.952 286.509 338.893 287.276 338.775 287.747H267.331V274.661H322.505L316.669 282.796C317.023 282.088 317.377 281.145 317.731 279.966C318.202 278.669 318.438 277.608 318.438 276.783C318.438 272.421 317.554 268.648 315.785 265.465C314.135 262.282 311.777 259.806 308.712 258.038C305.764 256.269 302.286 255.385 298.278 255.385C293.444 255.385 289.318 256.446 285.899 258.568C282.48 260.691 279.886 263.756 278.118 267.764C276.349 271.773 275.406 276.724 275.288 282.619C275.288 288.514 276.173 293.524 277.941 297.651C279.709 301.659 282.303 304.724 285.722 306.846C289.259 308.968 293.503 310.029 298.455 310.029C303.642 310.029 308.181 308.968 312.072 306.846C315.962 304.724 319.204 301.482 321.798 297.12L338.244 303.84C334 311.149 328.518 316.632 321.798 320.286C315.078 323.941 307.002 325.768 297.571 325.768ZM370.091 283.326C370.091 288.514 371.211 293.053 373.451 296.943C375.691 300.716 378.697 303.722 382.47 305.962C386.36 308.202 390.664 309.322 395.379 309.322C399.27 309.322 402.984 308.733 406.52 307.554C410.057 306.375 413.182 304.724 415.893 302.602C418.605 300.48 420.609 298.122 421.906 295.528V316.573C419.076 319.402 415.245 321.642 410.411 323.293C405.577 324.943 400.272 325.768 394.495 325.768C386.125 325.768 378.579 324 371.859 320.463C365.257 316.808 360.011 311.798 356.12 305.432C352.348 298.947 350.462 291.579 350.462 283.326C350.462 274.956 352.348 267.587 356.12 261.221C360.011 254.855 365.257 249.903 371.859 246.366C378.579 242.712 386.125 240.884 394.495 240.884C400.272 240.884 405.577 241.709 410.411 243.36C415.245 245.011 419.076 247.251 421.906 250.08V271.124C420.609 268.413 418.546 266.055 415.716 264.051C413.005 261.928 409.88 260.278 406.344 259.099C402.807 257.92 399.152 257.331 395.379 257.331C390.664 257.331 386.36 258.451 382.47 260.691C378.697 262.931 375.691 265.996 373.451 269.886C371.211 273.777 370.091 278.257 370.091 283.326ZM436.827 283.326C436.827 274.956 438.713 267.587 442.486 261.221C446.376 254.855 451.623 249.903 458.225 246.366C464.827 242.712 472.313 240.884 480.684 240.884C489.054 240.884 496.482 242.712 502.966 246.366C509.568 249.903 514.814 254.855 518.705 261.221C522.595 267.587 524.54 274.956 524.54 283.326C524.54 291.579 522.595 298.947 518.705 305.432C514.814 311.798 509.568 316.808 502.966 320.463C496.482 324 489.054 325.768 480.684 325.768C472.313 325.768 464.827 324 458.225 320.463C451.623 316.808 446.376 311.798 442.486 305.432C438.713 298.947 436.827 291.579 436.827 283.326ZM456.456 283.326C456.456 288.396 457.517 292.876 459.639 296.766C461.762 300.539 464.65 303.545 468.305 305.785C471.959 307.907 476.086 308.968 480.684 308.968C485.164 308.968 489.231 307.907 492.886 305.785C496.658 303.545 499.606 300.539 501.728 296.766C503.85 292.876 504.911 288.396 504.911 283.326C504.911 278.257 503.85 273.777 501.728 269.886C499.606 265.996 496.658 262.989 492.886 260.867C489.231 258.745 485.164 257.684 480.684 257.684C476.086 257.684 471.959 258.745 468.305 260.867C464.65 262.989 461.762 265.996 459.639 269.886C457.517 273.777 456.456 278.257 456.456 283.326Z" fill="black"/>
<path d="M568.244 324.765C561.61 324.765 555.332 323.847 549.413 322.01C543.493 320.07 538.849 317.672 535.481 314.814L540.38 306.24C543.646 308.69 547.831 310.833 552.934 312.671C558.037 314.406 563.396 315.273 569.009 315.273C576.664 315.273 582.176 314.1 585.544 311.752C588.912 309.302 590.596 306.087 590.596 302.107C590.596 299.147 589.627 296.85 587.687 295.217C585.85 293.482 583.401 292.206 580.339 291.39C577.277 290.471 573.858 289.706 570.081 289.093C566.305 288.481 562.528 287.766 558.752 286.95C555.077 286.133 551.709 284.96 548.647 283.429C545.585 281.796 543.085 279.601 541.145 276.845C539.308 274.09 538.389 270.415 538.389 265.822C538.389 261.433 539.614 257.504 542.064 254.034C544.513 250.563 548.086 247.859 552.781 245.919C557.578 243.878 563.396 242.857 570.234 242.857C575.44 242.857 580.645 243.572 585.85 245.001C591.056 246.328 595.342 248.114 598.711 250.359L593.965 259.086C590.392 256.636 586.565 254.901 582.482 253.88C578.399 252.758 574.317 252.196 570.234 252.196C562.987 252.196 557.629 253.472 554.159 256.024C550.791 258.473 549.106 261.638 549.106 265.516C549.106 268.578 550.025 270.977 551.862 272.712C553.801 274.447 556.302 275.825 559.364 276.845C562.528 277.764 565.947 278.529 569.622 279.142C573.398 279.754 577.124 280.52 580.798 281.438C584.574 282.255 587.994 283.429 591.056 284.96C594.22 286.389 596.72 288.481 598.558 291.237C600.497 293.89 601.466 297.412 601.466 301.801C601.466 306.496 600.14 310.578 597.486 314.049C594.934 317.417 591.158 320.07 586.156 322.01C581.257 323.847 575.286 324.765 568.244 324.765ZM662.902 324.765C655.962 324.765 649.685 323.183 644.071 320.019C638.457 316.753 633.967 312.109 630.598 306.087C627.332 299.963 625.699 292.513 625.699 283.735C625.699 274.957 627.332 267.557 630.598 261.535C633.864 255.411 638.304 250.767 643.918 247.603C649.532 244.439 655.86 242.857 662.902 242.857C670.557 242.857 677.396 244.592 683.418 248.063C689.542 251.431 694.339 256.228 697.809 262.454C701.279 268.578 703.014 275.672 703.014 283.735C703.014 291.9 701.279 299.045 697.809 305.169C694.339 311.293 689.542 316.09 683.418 319.56C677.396 323.03 670.557 324.765 662.902 324.765ZM621.412 353.701V243.623H631.823V267.813L630.751 283.888L632.282 300.116V353.701H621.412ZM662.137 315.12C667.853 315.12 672.956 313.844 677.447 311.293C681.938 308.639 685.51 304.965 688.164 300.27C690.817 295.472 692.144 289.961 692.144 283.735C692.144 277.509 690.817 272.048 688.164 267.353C685.51 262.658 681.938 258.984 677.447 256.33C672.956 253.676 667.853 252.349 662.137 252.349C656.421 252.349 651.267 253.676 646.674 256.33C642.183 258.984 638.611 262.658 635.957 267.353C633.405 272.048 632.129 277.509 632.129 283.735C632.129 289.961 633.405 295.472 635.957 300.27C638.611 304.965 642.183 308.639 646.674 311.293C651.267 313.844 656.421 315.12 662.137 315.12ZM766.204 242.857C772.736 242.857 778.452 244.133 783.351 246.685C788.352 249.134 792.231 252.911 794.986 258.014C797.844 263.117 799.273 269.548 799.273 277.305V324H788.403V278.376C788.403 269.905 786.26 263.526 781.973 259.239C777.788 254.85 771.868 252.656 764.213 252.656C758.498 252.656 753.497 253.829 749.21 256.177C745.025 258.422 741.759 261.74 739.411 266.128C737.166 270.415 736.043 275.621 736.043 281.745V324H725.173V210.4H736.043V265.669L733.9 261.535C736.451 255.718 740.534 251.176 746.148 247.91C751.761 244.541 758.447 242.857 766.204 242.857ZM862.776 324.765C854.407 324.765 847.058 323.03 840.73 319.56C834.402 315.988 829.451 311.14 825.879 305.016C822.307 298.79 820.521 291.696 820.521 283.735C820.521 275.774 822.205 268.731 825.573 262.607C829.043 256.483 833.738 251.686 839.658 248.216C845.68 244.643 852.416 242.857 859.867 242.857C867.42 242.857 874.105 244.592 879.923 248.063C885.843 251.431 890.487 256.228 893.855 262.454C897.223 268.578 898.907 275.672 898.907 283.735C898.907 284.245 898.856 284.807 898.754 285.419C898.754 285.929 898.754 286.491 898.754 287.103H828.788V278.989H892.937L888.65 282.204C888.65 276.386 887.374 271.232 884.822 266.741C882.373 262.148 879.005 258.576 874.718 256.024C870.431 253.472 865.481 252.196 859.867 252.196C854.356 252.196 849.405 253.472 845.016 256.024C840.628 258.576 837.208 262.148 834.759 266.741C832.309 271.334 831.084 276.59 831.084 282.51V284.194C831.084 290.318 832.411 295.728 835.065 300.423C837.821 305.016 841.597 308.639 846.394 311.293C851.294 313.844 856.856 315.12 863.082 315.12C867.981 315.12 872.523 314.253 876.708 312.518C880.995 310.782 884.669 308.129 887.731 304.556L893.855 311.599C890.283 315.886 885.792 319.152 880.382 321.397C875.075 323.643 869.206 324.765 862.776 324.765ZM921.033 324V243.623H931.443V265.516L930.372 261.689C932.617 255.565 936.394 250.921 941.701 247.756C947.009 244.49 953.592 242.857 961.451 242.857V253.421C961.043 253.421 960.634 253.421 960.226 253.421C959.818 253.319 959.41 253.268 959.001 253.268C950.53 253.268 943.896 255.871 939.098 261.076C934.301 266.179 931.903 273.477 931.903 282.969V324H921.033ZM1014.68 324.765C1006.31 324.765 998.961 323.03 992.633 319.56C986.305 315.988 981.355 311.14 977.782 305.016C974.21 298.79 972.424 291.696 972.424 283.735C972.424 275.774 974.108 268.731 977.476 262.607C980.946 256.483 985.641 251.686 991.561 248.216C997.583 244.643 1004.32 242.857 1011.77 242.857C1019.32 242.857 1026.01 244.592 1031.83 248.063C1037.75 251.431 1042.39 256.228 1045.76 262.454C1049.13 268.578 1050.81 275.672 1050.81 283.735C1050.81 284.245 1050.76 284.807 1050.66 285.419C1050.66 285.929 1050.66 286.491 1050.66 287.103H980.691V278.989H1044.84L1040.55 282.204C1040.55 276.386 1039.28 271.232 1036.73 266.741C1034.28 262.148 1030.91 258.576 1026.62 256.024C1022.33 253.472 1017.38 252.196 1011.77 252.196C1006.26 252.196 1001.31 253.472 996.92 256.024C992.531 258.576 989.112 262.148 986.662 266.741C984.213 271.334 982.988 276.59 982.988 282.51V284.194C982.988 290.318 984.315 295.728 986.968 300.423C989.724 305.016 993.501 308.639 998.298 311.293C1003.2 313.844 1008.76 315.12 1014.99 315.12C1019.88 315.12 1024.43 314.253 1028.61 312.518C1032.9 310.782 1036.57 308.129 1039.63 304.556L1045.76 311.599C1042.19 315.886 1037.7 319.152 1032.29 321.397C1026.98 323.643 1021.11 324.765 1014.68 324.765Z" fill="black"/>
<path d="M284.142 206.818C283.998 201.661 289.381 195.43 292.09 192.959C258.455 201.504 256.565 217.376 255.252 227.314C255.239 231.361 257.618 234.334 258.81 235.314C257.708 222.737 265.601 214.86 270.498 211.068C263.542 217.38 261.485 229.415 260.966 235.801C279.853 231.957 284.321 213.264 284.142 206.818Z" fill="#36B475"/>
<path d="M221.488 255.025C216.631 253.289 209.037 256.472 205.848 258.281C224.408 228.958 240.083 232.086 249.937 233.922C253.789 235.166 255.877 238.35 256.439 239.787C244.825 234.836 234.887 239.896 229.762 243.375C237.922 238.72 250.001 240.5 256.232 241.988C246.717 258.75 227.561 257.196 221.488 255.025Z" fill="#36B475"/>
<path d="M217.673 208.301C216.187 203.361 209.118 199.139 205.77 197.646C240.385 195.177 247.171 209.649 251.543 218.67C252.828 222.508 251.505 226.078 250.682 227.383C247.773 215.098 237.802 210.103 231.961 208.044C240.55 211.847 246.288 222.625 248.788 228.524C229.651 230.815 219.531 214.476 217.673 208.301Z" fill="#36B475"/>
</svg>
